<?xml version="1.0" encoding="UTF-8" standalone="no"?>
<svg
   xmlns:dc="http://purl.org/dc/elements/1.1/"
   xmlns:cc="http://creativecommons.org/ns#"
   xmlns:rdf="http://www.w3.org/1999/02/22-rdf-syntax-ns#"
   xmlns:svg="http://www.w3.org/2000/svg"
   xmlns="http://www.w3.org/2000/svg"
   viewBox="0 0 768 576"
   height="576"
   width="768"
   xml:space="preserve"
   id="svg2"
   version="1.1"><metadata
     id="metadata8"><rdf:RDF><cc:Work
         rdf:about=""><dc:format>image/svg+xml</dc:format><dc:type
           rdf:resource="http://purl.org/dc/dcmitype/StillImage" /></cc:Work></rdf:RDF></metadata><defs
     id="defs6"><clipPath
       id="clipPath18"
       clipPathUnits="userSpaceOnUse"><path
         style="clip-rule:evenodd"
         id="path16"
         d="M 0,9.1553e-5 H 576 V 432.00009 H 0 Z" /></clipPath><clipPath
       id="clipPath28"
       clipPathUnits="userSpaceOnUse"><path
         style="clip-rule:evenodd"
         id="path26"
         d="M 8.583e-6,0 H 576.00001 V 432 H 8.583e-6 Z" /></clipPath><clipPath
       id="clipPath40"
       clipPathUnits="userSpaceOnUse"><path
         style="clip-rule:evenodd"
         id="path38"
         d="M 8.583e-6,0 H 576.00001 V 432 H 8.583e-6 Z" /></clipPath><clipPath
       id="clipPath52"
       clipPathUnits="userSpaceOnUse"><path
         style="clip-rule:evenodd"
         id="path50"
         d="M 8.583e-6,0 H 576.00001 V 432 H 8.583e-6 Z" /></clipPath><clipPath
       id="clipPath64"
       clipPathUnits="userSpaceOnUse"><path
         style="clip-rule:evenodd"
         id="path62"
         d="M 8.583e-6,0 H 576.00001 V 432 H 8.583e-6 Z" /></clipPath><clipPath
       id="clipPath76"
       clipPathUnits="userSpaceOnUse"><path
         style="clip-rule:evenodd"
         id="path74"
         d="M 8.583e-6,0 H 576.00001 V 432 H 8.583e-6 Z" /></clipPath><clipPath
       id="clipPath88"
       clipPathUnits="userSpaceOnUse"><path
         style="clip-rule:evenodd"
         id="path86"
         d="M 8.583e-6,0 H 576.00001 V 432 H 8.583e-6 Z" /></clipPath><clipPath
       id="clipPath104"
       clipPathUnits="userSpaceOnUse"><path
         style="clip-rule:evenodd"
         id="path102"
         d="M 8.583e-6,0 H 576.00001 V 432 H 8.583e-6 Z" /></clipPath><clipPath
       id="clipPath118"
       clipPathUnits="userSpaceOnUse"><path
         style="clip-rule:evenodd"
         id="path116"
         d="M 8.583e-6,0 H 576.00001 V 432 H 8.583e-6 Z" /></clipPath><clipPath
       id="clipPath130"
       clipPathUnits="userSpaceOnUse"><path
         style="clip-rule:evenodd"
         id="path128"
         d="M -1.5259e-5,432 H 576 V 0 L -1.5259e-5,3.0518e-5" /></clipPath><clipPath
       id="clipPath140"
       clipPathUnits="userSpaceOnUse"><path
         style="clip-rule:evenodd"
         id="path138"
         d="M 8.583e-6,0 H 576.00001 V 432 H 8.583e-6 Z" /></clipPath><clipPath
       id="clipPath160"
       clipPathUnits="userSpaceOnUse"><path
         style="clip-rule:evenodd"
         id="path158"
         d="M 8.583e-6,0 H 576.00001 V 432 H 8.583e-6 Z" /></clipPath><clipPath
       id="clipPath180"
       clipPathUnits="userSpaceOnUse"><path
         style="clip-rule:evenodd"
         id="path178"
         d="M 8.583e-6,0 H 576.00001 V 432 H 8.583e-6 Z" /></clipPath></defs><g
     transform="matrix(1.3333333,0,0,-1.3333333,0,576)"
     id="g10"><g
       id="g12"><g
         clip-path="url(#clipPath18)"
         id="g14"><path
           id="path20"
           style="fill:#ffffff;fill-opacity:1;fill-rule:evenodd;stroke:none"
           d="M 0,3.0518e-5 H 576 V 432.00003 H 0 Z" /></g></g><g
       id="g22"><g
         clip-path="url(#clipPath28)"
         id="g24"><text
           id="text32"
           style="font-variant:normal;font-weight:normal;font-size:80.06400299px;font-family:Calibri;-inkscape-font-specification:Calibri;writing-mode:lr-tb;fill:#000000;fill-opacity:1;fill-rule:nonzero;stroke:none"
           transform="matrix(1,0,0,-1,180.62,203.28)"><tspan
             id="tspan30"
             y="0"
             x="0 40.592449 58.686913 99.279358 117.37383 157.96628 176.06073">1 1 2 5</tspan></text>
</g></g><g
       id="g34"><g
         clip-path="url(#clipPath40)"
         id="g36"><text
           id="text44"
           style="font-variant:normal;font-weight:normal;font-size:18px;font-family:Calibri;-inkscape-font-specification:Calibri;writing-mode:lr-tb;fill:#000000;fill-opacity:1;fill-rule:nonzero;stroke:none"
           transform="matrix(1,0,0,-1,368.74,276.24)"><tspan
             id="tspan42"
             y="0"
             x="0">0</tspan></text>
</g></g><g
       id="g46"><g
         clip-path="url(#clipPath52)"
         id="g48"><text
           id="text56"
           style="font-variant:normal;font-weight:normal;font-size:18px;font-family:Calibri;-inkscape-font-specification:Calibri;writing-mode:lr-tb;fill:#000000;fill-opacity:1;fill-rule:nonzero;stroke:none"
           transform="matrix(1,0,0,-1,311.93,276.24)"><tspan
             id="tspan54"
             y="0"
             x="0">1</tspan></text>
</g></g><g
       id="g58"><g
         clip-path="url(#clipPath64)"
         id="g60"><text
           id="text68"
           style="font-variant:normal;font-weight:normal;font-size:18px;font-family:Calibri;-inkscape-font-specification:Calibri;writing-mode:lr-tb;fill:#000000;fill-opacity:1;fill-rule:nonzero;stroke:none"
           transform="matrix(1,0,0,-1,198.36,276.24)"><tspan
             id="tspan66"
             y="0"
             x="0">3</tspan></text>
</g></g><g
       id="g70"><g
         clip-path="url(#clipPath76)"
         id="g72"><text
           id="text80"
           style="font-variant:normal;font-weight:normal;font-size:18px;font-family:Calibri;-inkscape-font-specification:Calibri;writing-mode:lr-tb;fill:#000000;fill-opacity:1;fill-rule:nonzero;stroke:none"
           transform="matrix(1,0,0,-1,255.14,276.24)"><tspan
             id="tspan78"
             y="0"
             x="0">2</tspan></text>
</g></g><g
       id="g82"><g
         clip-path="url(#clipPath88)"
         id="g84"><text
           id="text92"
           style="font-variant:normal;font-weight:normal;font-size:44.06399918px;font-family:Calibri;-inkscape-font-specification:Calibri;writing-mode:lr-tb;fill:#000000;fill-opacity:1;fill-rule:nonzero;stroke:none"
           transform="matrix(1,0,0,-1,404.02,178.51)"><tspan
             id="tspan90"
             y="0"
             x="0 22.320047">10</tspan></text>
</g></g><path
       id="path94"
       style="fill:none;stroke:#000000;stroke-width:3;stroke-linecap:butt;stroke-linejoin:round;stroke-miterlimit:10;stroke-dasharray:none;stroke-opacity:1"
       d="m 173.46,152.82 h 55.8 V 323.7 h -55.8 z" /><path
       id="path96"
       style="fill:#000000;fill-opacity:1;fill-rule:nonzero;stroke:none"
       d="m 82.16,162.25 86.41,14.05 -0.16,0.99 L 82,163.23 Z m 85.82,11.43 5.44,3.92 -6.4,2 z" /><g
       id="g98"><g
         clip-path="url(#clipPath104)"
         id="g100"><text
           id="text108"
           style="font-variant:normal;font-weight:bold;font-size:20.06399918px;font-family:Calibri;-inkscape-font-specification:Calibri-Bold;writing-mode:lr-tb;fill:#000000;fill-opacity:1;fill-rule:nonzero;stroke:none"
           transform="matrix(1,0,0,-1,17.52,141.96)"><tspan
             id="tspan106"
             y="0"
             x="0 10.312896 21.107328 29.112864 34.048607 41.010815 45.94656 56.740993">Position</tspan></text>
</g></g><path
       id="path110"
       style="fill:#000000;fill-opacity:1;fill-rule:nonzero;stroke:none"
       d="m 480.63,104.04 -22.89,53.88 0.92,0.39 22.89,-53.88 z m -24.8,51.98 0.41,6.7 5.11,-4.35 z" /><g
       id="g112"><g
         clip-path="url(#clipPath118)"
         id="g114"><text
           id="text122"
           style="font-variant:normal;font-weight:bold;font-size:20.04000092px;font-family:Calibri;-inkscape-font-specification:Calibri-Bold;writing-mode:lr-tb;fill:#000000;fill-opacity:1;fill-rule:nonzero;stroke:none"
           transform="matrix(1,0,0,-1,464.9,79.752)"><tspan
             id="tspan120"
             y="0"
             x="0 11.28252 21.12216 31.88364 36.81348">Radix</tspan></text>
</g></g><g
       id="g124"><g
         clip-path="url(#clipPath130)"
         id="g126"><path
           id="path132"
           style="fill:none;stroke:#000000;stroke-width:0.47999999;stroke-linecap:butt;stroke-linejoin:miter;stroke-miterlimit:8;stroke-dasharray:none;stroke-opacity:1"
           d="m 173.4,353.76 c 0,7.99 12.11,14.46 27.05,14.46 h 57.56 c 14.94,0 27.05,6.47 27.05,14.46 0,-7.99 12.11,-14.46 27.05,-14.46 h 57.56 c 14.94,0 27.05,-6.47 27.05,-14.46" /></g></g><g
       id="g134"><g
         clip-path="url(#clipPath140)"
         id="g136"><text
           id="text144"
           style="font-variant:normal;font-weight:bold;font-size:20.04000092px;font-family:Calibri;-inkscape-font-specification:Calibri-Bold;writing-mode:lr-tb;fill:#000000;fill-opacity:1;fill-rule:nonzero;stroke:none"
           transform="matrix(1,0,0,-1,252.36,395.21)"><tspan
             id="tspan142"
             y="0"
             x="0 13.20636 23.96784 40.260361 51.102001 61.182121">Number</tspan></text>
</g></g><path
       id="path146"
       style="fill:#000000;fill-opacity:1;fill-rule:nonzero;stroke:none"
       d="m 455.98,336.55 -73.81,-43.75 0.51,-0.86 73.81,43.75 z m -74.23,-41.09 -3.63,-5.64 6.69,0.48 z" /><path
       id="path148"
       style="fill:#000000;fill-opacity:1;fill-rule:nonzero;stroke:none"
       d="m 456.09,336.59 -130.88,-44.68 0.32,-0.94 130.88,44.68 z m -130.74,-41.99 -4.71,-4.78 6.65,-0.9 z" /><path
       id="path150"
       style="fill:#000000;fill-opacity:1;fill-rule:nonzero;stroke:none"
       d="m 456.06,336.85 -180.6,-43.76 0.24,-0.97 180.59,43.75 z m -180.22,-41.09 -5.12,-4.33 6.54,-1.5 z" /><path
       id="path152"
       style="fill:#000000;fill-opacity:1;fill-rule:nonzero;stroke:none"
       d="m 456.16,337.21 -236.43,-45.98 0.19,-0.98 236.43,45.98 z m -235.92,-43.33 -5.32,-4.09 6.46,-1.8 z" /><g
       id="g154"><g
         clip-path="url(#clipPath160)"
         id="g156"><text
           id="text164"
           style="font-variant:normal;font-weight:bold;font-size:20.04000092px;font-family:Calibri;-inkscape-font-specification:Calibri-Bold;writing-mode:lr-tb;fill:#000000;fill-opacity:1;fill-rule:nonzero;stroke:none"
           transform="matrix(1,0,0,-1,464.42,332.54)"><tspan
             id="tspan162"
             y="0"
             x="0 5.3506799 16.172279 26.93376 36.693241">Index</tspan></text>
</g></g><path
       id="path166"
       style="fill:#000000;fill-opacity:1;fill-rule:nonzero;stroke:none"
       d="m 308.97,71.104 61.1,121.606 -0.89,0.45 -61.11,-121.607 z m 62.89,119.586 0.01,6.71 -5.38,-4.01 z" /><path
       id="path168"
       style="fill:#000000;fill-opacity:1;fill-rule:nonzero;stroke:none"
       d="m 309.02,71.309 4.85,121.071 -1,0.04 -4.85,-121.071 z m 7.31,119.971 -2.76,6.12 -3.23,-5.88 z" /><path
       id="path170"
       style="fill:#000000;fill-opacity:1;fill-rule:nonzero;stroke:none"
       d="m 308.09,71.149 -46.95,121.411 0.93,0.36 46.95,-121.411 z m -48.92,119.571 0.63,6.68 4.96,-4.51 z" /><path
       id="path172"
       style="fill:#000000;fill-opacity:1;fill-rule:nonzero;stroke:none"
       d="m 308.19,71.008 -102.32,122.242 0.76,0.64 102.33,-122.24 z m -103.6,119.862 -1.55,6.53 6.15,-2.68 z" /><g
       id="g174"><g
         clip-path="url(#clipPath180)"
         id="g176"><text
           id="text184"
           style="font-variant:normal;font-weight:bold;font-size:20.04000092px;font-family:Calibri;-inkscape-font-specification:Calibri-Bold;writing-mode:lr-tb;fill:#000000;fill-opacity:1;fill-rule:nonzero;stroke:none"
           transform="matrix(1,0,0,-1,283.34,48.24)"><tspan
             id="tspan182"
             y="0"
             x="0 12.6252 17.55504 27.054001 31.923719 38.877602">Digits</tspan></text>
</g></g></g></svg>